<?xml version="1.0" encoding="utf-8"?><svg viewBox="0 0 40 40" xmlns="http://www.w3.org/2000/svg" xmlns:xlink="http://www.w3.org/1999/xlink"><style>:root>svg{display:none}:root>svg:target{display:block}</style><svg viewBox="0 0 11 7" id="arrow-down" xmlns="http://www.w3.org/2000/svg"><path d="M9.996.996a.84.84 0 0 1 0 1.203l-3.89 3.805a.87.87 0 0 1-1.212 0l-3.89-3.805a.84.84 0 0 1 0-1.203.871.871 0 0 1 1.214 0l3.23 3.16h.105l3.23-3.16a.871.871 0 0 1 1.213 0Z"/></svg><svg viewBox="0 0 40 40" id="doc" xmlns="http://www.w3.org/2000/svg"><path d="M22.5 5H11.75a3 3 0 0 0-3 3v24a3 3 0 0 0 3 3h9.5M22.5 5l8.75 8.75M22.5 5v6.75a2 2 0 0 0 2 2h6.75m0 0v8.75M13.75 20h12.5m-12.5 5H20m7.5 0v10m0 0-3.75-3.75M27.5 35l3.75-3.75"/></svg><svg viewBox="0 0 10 8" id="icon-checkbox" xmlns="http://www.w3.org/2000/svg"><path d="M1 3.743 4.048 7 9 1"/></svg></svg>